<svg xmlns="http://www.w3.org/2000/svg" viewBox="0 0 92.02 89.6"><defs><style>.cls-1{fill:#000}</style></defs><path class="cls-1" d="M328.41 429.21c-12.11 0-12.51-.41-16.56-12.37-.73-2.16-.57-5.49-4.24-5.7-2.46-.14-4.44-.12-4.94 3.22-.46 3-2.09 5.86-3.15 8.78-1.34 3.7-3.82 5.42-9 6.13-3.61.5-7.32-.07-11-.07-8.18 0-11.56-2.24-14.54-9.86-1.19-3.05-2-6.24-3.63-9.14-1.1-1.9-1.27-5.42-.21-6.17 7.32-5.1 2.86-12.16 2.23-17.56a25.84 25.84 0 016-20.52 69.4 69.4 0 0135.48-23 4.38 4.38 0 001.39-.51c6.47-4.72 13.39-1.84 19.62-.15 4 1.1 7.2 5.17 11.81 6.51 1.78.52.32 3.72-.11 5.5-.65 2.72-1.76 4.71 2.67 3 3.26-1.25 6.44 1.44 6.5 6.38.07 5.44 2.28 10.3 2.9 15.42.64 5.28-.62 10.79-1.06 16.2-.22 2.74-1.83 5.45 2.28 7.44 2.37 1.15 1.77 5.12.5 7.22a42.47 42.47 0 00-3.15 7.7c-3.38 9.13-7.53 11.55-19.79 11.55zm10.06-28c2 0 2.75-.71 2.18-2.68-1.94-6.61-3-13.47-6-19.77-2.42-5.1-4.77-6.14-10.06-4-4.11 1.63-8.35 3.61-12.7 3.26a97.65 97.65 0 01-22.48-4.43c-5.6-1.83-9.06.33-11.52 5.64-2.86 6.18-3.85 12.88-5.76 19.32-.57 1.93.08 2.71 2.12 2.72 10.92.06 21.91-1 32.5 2.81 10.54-3.33 21.14-3 31.72-2.85zm-41 5.58c-1.64-1.63-.18-.45-2.11-1.67-.19-.74-3.37-.81-4.5-.78-7.08.16-14.2-.89-21.22.87a2.72 2.72 0 00-2.08 1.83c-1.37 3.53.85 14.07 3.81 16.08 6.37 4.34 13.62 3.15 20.57 2.24 5.53-.72 5.47-6.15 7-10.09 1.15-2.12.06-7.09-1.47-8.46zm21-1.49c-2.92.43-5.36 1.9-4.59 5.6s1.44 7.33 2.48 10.91a5.79 5.79 0 002.62 2.91c7.19 4.14 22.58 3.64 25.16-6.82 1-4.06 1.84-8.12.51-11.56-1.11-2.85-5.12-2.37-8.18-2.37h-5.31c-3.95-.17-8.16.68-12.66 1.35z" transform="translate(-260.42 -339.89)"/><path class="cls-1" d="M295.09 412.18c.34-3.62-4.35-1.95-3-5 1.17 0 1.4-.56 3.08.23 1.15.5 2.28 1.06 2 2.61-.17 1.18-.94 2.67-2.08 2.16zM341.37 411.25c.34-3.62-4.35-1.95-3-5 1.17 0 1.4-.56 3.08.23 1.15.5 2.28 1.06 2 2.61-.19 1.18-.94 2.67-2.08 2.16z" transform="translate(-260.42 -339.89)"/></svg>